<?xml version="1.0" encoding="UTF-8"?>
<svg width="30px" height="30px" viewBox="0 0 30 30" version="1.1" xmlns="http://www.w3.org/2000/svg" xmlns:xlink="http://www.w3.org/1999/xlink">
    <title>编组 3</title>
    <g id="页面-1" stroke="none" stroke-width="1" fill="none" fill-rule="evenodd">
        <g id="浅色调-股票代码" transform="translate(-31.000000, -18.000000)">
            <g id="编组-3" transform="translate(31.000000, 18.000000)">
                <g id="编组-2">
                    <path d="M8.78764977,4.00462673 L8.78764977,18.7024147 C8.98589862,21.6935668 7.74953917,27.7234286 1.63271889,29.8496959 L-9.08606523e-13,25.1544885 C4.1516129,23.711447 3.8278341,19.0365622 3.82451613,18.9895576 L3.8164977,18.7921382 L3.8164977,4.00462673 L8.78764977,4.00462673 Z M26.8038802,-5.86197757e-14 L28.4365991,4.69520737 C24.2851244,6.13824885 24.608765,10.8132719 24.6119447,10.8601382 L24.6201014,11.0575576 L24.6201014,25.8450691 L19.6489493,25.8450691 L19.6489493,11.1474194 C19.4507005,8.15612903 20.6870599,2.12640553 26.8038802,-5.86197757e-14 Z M16.7039309,12.4900783 L16.7039309,17.3596175 L11.7327788,17.3596175 L11.7327788,12.4900783 L16.7039309,12.4900783 Z" id="形状结合" fill="#00BDFF"></path>
                </g>
            </g>
        </g>
    </g>
</svg>